<svg version="1.1" xmlns="http://www.w3.org/2000/svg" viewBox="0 0 750 629" width="750" height="629" filter="invert(93%) hue-rotate(180deg)">
  <!-- svg-source:excalidraw -->
  
  <defs>
    <style class="style-fonts">
      @font-face {
        font-family: "Virgil";
        src: url("https://excalidraw.com/Virgil.woff2");
      }
      @font-face {
        font-family: "Cascadia";
        src: url("https://excalidraw.com/Cascadia.woff2");
      }
      @font-face {
        font-family: "Assistant";
        src: url("https://excalidraw.com/Assistant-Regular.woff2");
      }
    </style>
    
  </defs>
  <g stroke-linecap="round" transform="translate(10 10) rotate(0 365 304.5)"><path d="M32 0 C294.83 -0.65, 559.07 -0.89, 698 0 M32 0 C233.65 1.26, 434.23 1.69, 698 0 M698 0 C718.83 -1.05, 731.16 10.28, 730 32 M698 0 C719.73 -0.08, 728.58 8.82, 730 32 M730 32 C728.55 222.08, 728.15 411.71, 730 577 M730 32 C729.06 163.72, 729.44 295.84, 730 577 M730 577 C729.59 597.03, 717.7 610.57, 698 609 M730 577 C731.99 599.16, 719.83 610.73, 698 609 M698 609 C538.61 610.58, 380.81 609.63, 32 609 M698 609 C485 607.93, 271.4 607.46, 32 609 M32 609 C9.81 610.01, 1.44 596.46, 0 577 M32 609 C11.42 607.67, 0.16 599.29, 0 577 M0 577 C-0.71 373.88, -1.85 170.03, 0 32 M0 577 C0.73 363.12, 0.69 149.08, 0 32 M0 32 C1.98 10.85, 8.71 -1.62, 32 0 M0 32 C2.08 10.7, 9.27 -1.68, 32 0" stroke="#e03131" stroke-width="2" fill="none"></path></g><g transform="translate(27 31) rotate(0 25.424999237060547 12.5)"><text x="0" y="17.52" font-family="Virgil, Segoe UI Emoji" font-size="20px" fill="#e03131" text-anchor="start" style="white-space: pre;" direction="ltr" dominant-baseline="alphabetic">LUKS</text></g><g stroke-linecap="round" transform="translate(95 32) rotate(0 307.5 64.5)"><path d="M32 0 C203.42 0.58, 375.69 0.91, 583 0 M32 0 C248.05 1.56, 463.96 1.32, 583 0 M583 0 C604.56 -1.34, 615.07 11.91, 615 32 M583 0 C602.77 0.02, 615.27 8.64, 615 32 M615 32 C616.1 54.06, 616.2 76.13, 615 97 M615 32 C615.04 57.12, 614.65 83.14, 615 97 M615 97 C613.14 118.29, 603.94 127.6, 583 129 M615 97 C613.99 117.21, 602.04 130.16, 583 129 M583 129 C435.52 130.64, 289.3 129.96, 32 129 M583 129 C421.51 128.06, 259.7 128.07, 32 129 M32 129 C11.34 130.05, -0.39 116.68, 0 97 M32 129 C11.43 127.57, 1.91 116.24, 0 97 M0 97 C1.04 83.24, -1.33 68.55, 0 32 M0 97 C-0.57 72.07, -0.17 48.17, 0 32 M0 32 C-0.54 11.82, 9.88 -0.99, 32 0 M0 32 C1.99 8.69, 9.26 0.61, 32 0" stroke="#2f9e44" stroke-width="2" fill="none"></path></g><g transform="translate(119 49) rotate(0 47.775001525878906 12.5)"><text x="0" y="17.52" font-family="Virgil, Segoe UI Emoji" font-size="20px" fill="#2f9e44" text-anchor="start" style="white-space: pre;" direction="ltr" dominant-baseline="alphabetic">Swap LVM</text></g><g stroke-linecap="round" transform="translate(99 186) rotate(0 303 204.5)"><path d="M32 0 C210.15 -1.67, 388.15 -0.85, 574 0 M32 0 C221.9 -0.3, 411.57 -0.47, 574 0 M574 0 C595.61 -1.99, 606.02 11.78, 606 32 M574 0 C596.15 1.04, 605.93 9.69, 606 32 M606 32 C603.27 144.16, 604.71 257.01, 606 377 M606 32 C606.04 154.51, 606.92 277.68, 606 377 M606 377 C604.1 398.8, 594.63 410.83, 574 409 M606 377 C607.08 396.67, 594.88 406.71, 574 409 M574 409 C372.86 409.47, 170.83 410.86, 32 409 M574 409 C364.94 410.22, 154.99 410.6, 32 409 M32 409 C11.4 407.24, 1.88 399.23, 0 377 M32 409 C9.55 407.88, 1.4 397.4, 0 377 M0 377 C1.15 251.84, -0.71 125.35, 0 32 M0 377 C-1.36 308.27, -1.6 239.26, 0 32 M0 32 C1.12 8.94, 9.3 1.15, 32 0 M0 32 C1.87 10.97, 9.5 1.03, 32 0" stroke="#2f9e44" stroke-width="2" fill="none"></path></g><g transform="translate(122 211) rotate(0 47.51250076293945 12.5)"><text x="0" y="17.52" font-family="Virgil, Segoe UI Emoji" font-size="20px" fill="#2f9e44" text-anchor="start" style="white-space: pre;" direction="ltr" dominant-baseline="alphabetic">Root LVM</text></g><g stroke-linecap="round" transform="translate(237 206) rotate(0 221 182.5)"><path d="M32 0 C129.11 0.36, 225.83 1.41, 410 0 M32 0 C154.26 -1.95, 275.7 -2.35, 410 0 M410 0 C431.39 1.28, 443.57 10.91, 442 32 M410 0 C432.52 0.53, 443.76 12.07, 442 32 M442 32 C445.14 136.52, 442.53 239.41, 442 333 M442 32 C443.16 103.89, 443.59 175.53, 442 333 M442 333 C442.84 352.44, 432.08 365.22, 410 365 M442 333 C439.71 352.03, 433.49 365.19, 410 365 M410 365 C321.73 366.75, 232.71 365.9, 32 365 M410 365 C331.36 366, 252.05 366.66, 32 365 M32 365 C11.95 364.56, -1.71 355.17, 0 333 M32 365 C12.04 366.85, 0.98 353.82, 0 333 M0 333 C-0.69 220.9, -0.94 107.18, 0 32 M0 333 C-0.76 268.26, -1.8 203.98, 0 32 M0 32 C1.14 8.82, 12.25 -0.16, 32 0 M0 32 C1.63 10, 9.01 1.28, 32 0" stroke="#1971c2" stroke-width="2" fill="none"></path></g><g transform="translate(278 230) rotate(0 48.32500076293945 25)"><text x="0" y="17.52" font-family="Virgil, Segoe UI Emoji" font-size="20px" fill="#1971c2" text-anchor="start" style="white-space: pre;" direction="ltr" dominant-baseline="alphabetic">BTRFS</text><text x="0" y="42.519999999999996" font-family="Virgil, Segoe UI Emoji" font-size="20px" fill="#1971c2" text-anchor="start" style="white-space: pre;" direction="ltr" dominant-baseline="alphabetic">filesystem</text></g><g stroke-linecap="round" transform="translate(431 223) rotate(0 114 27)"><path d="M13.5 0 C74.81 1.41, 135.19 2.58, 214.5 0 M13.5 0 C68.52 0.27, 123.7 0.19, 214.5 0 M214.5 0 C223.81 0.62, 229.71 4.49, 228 13.5 M214.5 0 C225.44 1.3, 226.25 4.79, 228 13.5 M228 13.5 C228.64 20.03, 227.86 27.96, 228 40.5 M228 13.5 C227.92 20.53, 228.19 27.39, 228 40.5 M228 40.5 C229.86 47.77, 224.29 54.86, 214.5 54 M228 40.5 C229.24 51.37, 221.68 52.79, 214.5 54 M214.5 54 C160.52 52.15, 106.03 53.32, 13.5 54 M214.5 54 C157.43 51.82, 101.11 52.98, 13.5 54 M13.5 54 C5.15 55.87, -0.06 48.21, 0 40.5 M13.5 54 C4.82 53.72, -2.04 50.8, 0 40.5 M0 40.5 C1.45 28.52, -0.94 19.46, 0 13.5 M0 40.5 C-1.05 31.49, 0.87 22.42, 0 13.5 M0 13.5 C0.14 3.11, 4.01 0.67, 13.5 0 M0 13.5 C0.37 4.29, 6.14 -0.63, 13.5 0" stroke="#1971c2" stroke-width="2" fill="none"></path></g><g transform="translate(523.8875007629395 237.5) rotate(0 21.112499237060547 12.5)"><text x="21.112499237060547" y="17.52" font-family="Virgil, Segoe UI Emoji" font-size="20px" fill="#1971c2" text-anchor="middle" style="white-space: pre;" direction="ltr" dominant-baseline="alphabetic">root</text></g><g stroke-linecap="round" transform="translate(428 288) rotate(0 114 27)"><path d="M13.5 0 C54.26 2.16, 97.95 1.96, 214.5 0 M13.5 0 C61.07 0.05, 109.42 0.68, 214.5 0 M214.5 0 C223.34 0.07, 227.99 4.36, 228 13.5 M214.5 0 C225.47 -1.32, 229.14 2.84, 228 13.5 M228 13.5 C228.27 20.1, 228.2 28.99, 228 40.5 M228 13.5 C228.1 19.23, 227.58 25.24, 228 40.5 M228 40.5 C226 50.96, 223.78 55.3, 214.5 54 M228 40.5 C229.83 51.54, 221.78 52.08, 214.5 54 M214.5 54 C175.58 54.68, 135.01 55.81, 13.5 54 M214.5 54 C142.12 55.76, 68.54 54.66, 13.5 54 M13.5 54 C4.3 52.42, 1.51 49.6, 0 40.5 M13.5 54 C6.41 55.59, -1.3 50.99, 0 40.5 M0 40.5 C0.39 33.26, 1.14 24.65, 0 13.5 M0 40.5 C0.13 30.94, 0.48 20.19, 0 13.5 M0 13.5 C0.28 3.47, 5.8 1.53, 13.5 0 M0 13.5 C-0.09 3.87, 4.81 -1.32, 13.5 0" stroke="#1971c2" stroke-width="2" fill="none"></path></g><g transform="translate(519.6375007629395 302.5) rotate(0 22.362499237060547 12.5)"><text x="22.362499237060547" y="17.52" font-family="Virgil, Segoe UI Emoji" font-size="20px" fill="#1971c2" text-anchor="middle" style="white-space: pre;" direction="ltr" dominant-baseline="alphabetic">home</text></g><g stroke-linecap="round" transform="translate(430 354) rotate(0 114 27)"><path d="M13.5 0 C94.37 -1, 174.71 -1.35, 214.5 0 M13.5 0 C77.64 -1.83, 142.94 -1.62, 214.5 0 M214.5 0 C222.45 0.87, 227.75 4.05, 228 13.5 M214.5 0 C225.01 0.66, 227.92 6.77, 228 13.5 M228 13.5 C226.67 22.75, 227.16 30.43, 228 40.5 M228 13.5 C227.81 20.18, 228.71 25.98, 228 40.5 M228 40.5 C229.75 49.04, 225.01 54.73, 214.5 54 M228 40.5 C229.86 49.19, 221.96 51.95, 214.5 54 M214.5 54 C149.47 55.23, 85.7 54.81, 13.5 54 M214.5 54 C163.03 53.55, 109.92 54.36, 13.5 54 M13.5 54 C5.83 54.68, -1.05 50.52, 0 40.5 M13.5 54 C6.27 55.86, 1.74 50.85, 0 40.5 M0 40.5 C1.56 33.6, -1.81 25.05, 0 13.5 M0 40.5 C0.66 30.58, -0.81 20.3, 0 13.5 M0 13.5 C1.33 3.61, 5.33 0.83, 13.5 0 M0 13.5 C0.12 6.79, 5.62 2.07, 13.5 0" stroke="#1971c2" stroke-width="2" fill="none"></path></g><g transform="translate(495.11249923706055 368.5) rotate(0 48.88750076293945 12.5)"><text x="48.88750076293945" y="17.52" font-family="Virgil, Segoe UI Emoji" font-size="20px" fill="#1971c2" text-anchor="middle" style="white-space: pre;" direction="ltr" dominant-baseline="alphabetic">snapshots</text></g><g stroke-linecap="round" transform="translate(433 422) rotate(0 114 27)"><path d="M13.5 0 C89.38 -0.94, 165.95 0.36, 214.5 0 M13.5 0 C76.56 1.12, 138.23 1.7, 214.5 0 M214.5 0 C223.23 -1.62, 226.73 5.83, 228 13.5 M214.5 0 C222.48 0.96, 228.95 4.62, 228 13.5 M228 13.5 C228.09 25.79, 226.47 34.39, 228 40.5 M228 13.5 C227.19 19.63, 227.76 25.14, 228 40.5 M228 40.5 C226.23 51.11, 222.79 54.7, 214.5 54 M228 40.5 C228.69 47.47, 225.12 53.69, 214.5 54 M214.5 54 C140.84 55.71, 65.9 54.66, 13.5 54 M214.5 54 C168.96 52.95, 124.62 51.7, 13.5 54 M13.5 54 C5.4 53.76, -1.28 50.83, 0 40.5 M13.5 54 C5.83 52.01, -2.05 51.73, 0 40.5 M0 40.5 C0.69 31.93, -1.04 22.13, 0 13.5 M0 40.5 C0.07 32.47, -0.35 24.29, 0 13.5 M0 13.5 C0 4.79, 5.51 1.79, 13.5 0 M0 13.5 C0.42 4.24, 4.76 1.17, 13.5 0" stroke="#1971c2" stroke-width="2" fill="none"></path></g><g transform="translate(509.2249984741211 436.5) rotate(0 37.775001525878906 12.5)"><text x="37.775001525878906" y="17.52" font-family="Virgil, Segoe UI Emoji" font-size="20px" fill="#1971c2" text-anchor="middle" style="white-space: pre;" direction="ltr" dominant-baseline="alphabetic">var_log</text></g><g stroke-linecap="round" transform="translate(432 493) rotate(0 114 27)"><path d="M13.5 0 C83.62 0.84, 154.08 -0.98, 214.5 0 M13.5 0 C60.36 -0.73, 108.82 -0.8, 214.5 0 M214.5 0 C223.56 -1.7, 227.98 4.9, 228 13.5 M214.5 0 C225.33 2.24, 227.21 6.7, 228 13.5 M228 13.5 C229.1 20.69, 226.88 28.96, 228 40.5 M228 13.5 C228.36 21.64, 228.55 30.12, 228 40.5 M228 40.5 C228.45 49.77, 222.02 52.45, 214.5 54 M228 40.5 C227.7 51.07, 221.73 56.25, 214.5 54 M214.5 54 C161.56 51.43, 110.18 54.02, 13.5 54 M214.5 54 C152.27 54.13, 88.8 54.84, 13.5 54 M13.5 54 C3.02 54.97, 1.77 47.81, 0 40.5 M13.5 54 C2.82 52.57, -1.54 47.95, 0 40.5 M0 40.5 C-0.41 32.84, -0.78 28.51, 0 13.5 M0 40.5 C1.22 33.07, 1.2 25.41, 0 13.5 M0 13.5 C0.48 3.36, 4.17 -0.6, 13.5 0 M0 13.5 C0.95 4.82, 3.13 0.84, 13.5 0" stroke="#1971c2" stroke-width="2" fill="none"></path></g><g transform="translate(501.13750076293945 507.5) rotate(0 44.86249923706055 12.5)"><text x="44.86249923706055" y="17.52" font-family="Virgil, Segoe UI Emoji" font-size="20px" fill="#1971c2" text-anchor="middle" style="white-space: pre;" direction="ltr" dominant-baseline="alphabetic">var_pkgs</text></g></svg>