<svg version="1.1" xmlns="http://www.w3.org/2000/svg" viewBox="0 0 538 575" width="538" height="575" filter="invert(93%) hue-rotate(180deg)">
  <!-- svg-source:excalidraw -->
  
  <defs>
    <style class="style-fonts">
      @font-face {
        font-family: "Virgil";
        src: url("https://excalidraw.com/Virgil.woff2");
      }
      @font-face {
        font-family: "Cascadia";
        src: url("https://excalidraw.com/Cascadia.woff2");
      }
      @font-face {
        font-family: "Assistant";
        src: url("https://excalidraw.com/Assistant-Regular.woff2");
      }
    </style>
    
  </defs>
  <g stroke-linecap="round" transform="translate(10 10) rotate(0 259 277.5)"><path d="M32 0 C210.83 -0.58, 391.34 -0.86, 486 0 M32 0 C169.66 0.97, 306.04 1.48, 486 0 M486 0 C506.83 -1.05, 519.16 10.28, 518 32 M486 0 C507.73 -0.08, 516.58 8.82, 518 32 M518 32 C516.68 203.24, 516.27 374.01, 518 523 M518 32 C517.08 150.63, 517.48 269.67, 518 523 M518 523 C517.59 543.03, 505.7 556.57, 486 555 M518 523 C519.99 545.16, 507.83 556.73, 486 555 M486 555 C376.97 556.55, 269.83 555.41, 32 555 M486 555 C340.88 554.18, 195.05 553.63, 32 555 M32 555 C9.81 556.01, 1.44 542.46, 0 523 M32 555 C11.42 553.67, 0.16 545.29, 0 523 M0 523 C-0.6 340.1, -1.78 156.44, 0 32 M0 523 C0.71 330.31, 0.66 137.45, 0 32 M0 32 C1.98 10.85, 8.71 -1.62, 32 0 M0 32 C2.08 10.7, 9.27 -1.68, 32 0" stroke="#e03131" stroke-width="2" fill="none"></path></g><g transform="translate(28 261) rotate(269.7786536804564 25.424999237060547 12.5)"><text x="0" y="17.52" font-family="Virgil, Segoe UI Emoji" font-size="20px" fill="#e03131" text-anchor="start" style="white-space: pre;" direction="ltr" dominant-baseline="alphabetic">LUKS</text></g><g stroke-linecap="round" transform="translate(98 38) rotate(0 200 34.5)"><path d="M17.25 0 C130.42 0.68, 244.93 1.2, 382.75 0 M17.25 0 C160.74 1.78, 304.02 1.4, 382.75 0 M382.75 0 C394.47 -1.34, 400.07 6.99, 400 17.25 M382.75 0 C392.69 0.02, 400.27 3.72, 400 17.25 M400 17.25 C401.02 29.32, 401.12 41.41, 400 51.75 M400 17.25 C400.24 30.29, 399.85 44.23, 400 51.75 M400 51.75 C398.14 63.21, 393.86 67.6, 382.75 69 M400 51.75 C398.99 62.13, 391.96 70.16, 382.75 69 M382.75 69 C284.64 71.08, 188.49 70.02, 17.25 69 M382.75 69 C275.69 68.19, 168.13 68.21, 17.25 69 M17.25 69 C6.42 70.05, -0.39 61.59, 0 51.75 M17.25 69 C6.51 67.57, 1.91 61.15, 0 51.75 M0 51.75 C1.23 44.8, -1.14 36.91, 0 17.25 M0 51.75 C-0.46 38.11, -0.06 25.48, 0 17.25 M0 17.25 C-0.54 6.9, 4.96 -0.99, 17.25 0 M0 17.25 C1.99 3.77, 4.34 0.61, 17.25 0" stroke="#2f9e44" stroke-width="2" fill="none"></path></g><g transform="translate(247.2750015258789 60) rotate(0 50.724998474121094 12.5)"><text x="50.724998474121094" y="17.52" font-family="Virgil, Segoe UI Emoji" font-size="20px" fill="#2f9e44" text-anchor="middle" style="white-space: pre;" direction="ltr" dominant-baseline="alphabetic">SWAP LVM</text></g><g stroke-linecap="round" transform="translate(95 132) rotate(0 199 204.5)"><path d="M32 0 C142.27 -2.09, 252.3 -0.69, 366 0 M32 0 C148.94 -0.42, 265.5 -0.71, 366 0 M366 0 C387.61 -1.99, 398.02 11.78, 398 32 M366 0 C388.15 1.04, 397.93 9.69, 398 32 M398 32 C395.27 144.16, 396.71 257.01, 398 377 M398 32 C398.04 154.51, 398.92 277.68, 398 377 M398 377 C396.1 398.8, 386.63 410.83, 366 409 M398 377 C399.08 396.67, 386.88 406.71, 366 409 M366 409 C242.45 409.07, 117.4 411.42, 32 409 M366 409 C237.6 410.07, 107.68 410.71, 32 409 M32 409 C11.4 407.24, 1.88 399.23, 0 377 M32 409 C9.55 407.88, 1.4 397.4, 0 377 M0 377 C1.15 251.84, -0.71 125.35, 0 32 M0 377 C-1.36 308.27, -1.6 239.26, 0 32 M0 32 C1.12 8.94, 9.3 1.15, 32 0 M0 32 C1.87 10.97, 9.5 1.03, 32 0" stroke="#2f9e44" stroke-width="2" fill="none"></path></g><g transform="translate(69 318) rotate(269.81459241408066 47.51250076293945 12.5)"><text x="0" y="17.52" font-family="Virgil, Segoe UI Emoji" font-size="20px" fill="#2f9e44" text-anchor="start" style="white-space: pre;" direction="ltr" dominant-baseline="alphabetic">Root LVM</text></g><g stroke-linecap="round" transform="translate(153 152) rotate(0 157 182.5)"><path d="M32 0 C96.75 0.24, 160.98 1.67, 282 0 M32 0 C113.07 -1.81, 193.04 -2.36, 282 0 M282 0 C303.39 1.28, 315.57 10.91, 314 32 M282 0 C304.52 0.53, 315.76 12.07, 314 32 M314 32 C317.14 136.52, 314.53 239.41, 314 333 M314 32 C315.16 103.89, 315.59 175.53, 314 333 M314 333 C314.84 352.44, 304.08 365.22, 282 365 M314 333 C311.71 352.03, 305.49 365.19, 282 365 M282 365 C223.61 366.98, 164.21 365.83, 32 365 M282 365 C230.19 365.79, 177.5 366.68, 32 365 M32 365 C11.95 364.56, -1.71 355.17, 0 333 M32 365 C12.04 366.85, 0.98 353.82, 0 333 M0 333 C-0.69 220.9, -0.94 107.18, 0 32 M0 333 C-0.76 268.26, -1.8 203.98, 0 32 M0 32 C1.14 8.82, 12.25 -0.16, 32 0 M0 32 C1.63 10, 9.01 1.28, 32 0" stroke="#1971c2" stroke-width="2" fill="none"></path></g><g transform="translate(61.74716211537782 315.65860514880694) rotate(269.40520404025017 123.3001975677297 12.5)"><text x="123.30019756772971" y="17.52" font-family="Virgil, Segoe UI Emoji" font-size="20px" fill="#1971c2" text-anchor="middle" style="white-space: pre;" direction="ltr" dominant-baseline="alphabetic">BTRFS filesystem</text></g><g stroke-linecap="round" transform="translate(219 169) rotate(0 114 27)"><path d="M13.5 0 C74.81 1.41, 135.19 2.58, 214.5 0 M13.5 0 C68.52 0.27, 123.7 0.19, 214.5 0 M214.5 0 C223.81 0.62, 229.71 4.49, 228 13.5 M214.5 0 C225.44 1.3, 226.25 4.79, 228 13.5 M228 13.5 C228.64 20.03, 227.86 27.96, 228 40.5 M228 13.5 C227.92 20.53, 228.19 27.39, 228 40.5 M228 40.5 C229.86 47.77, 224.29 54.86, 214.5 54 M228 40.5 C229.24 51.37, 221.68 52.79, 214.5 54 M214.5 54 C160.52 52.15, 106.03 53.32, 13.5 54 M214.5 54 C157.43 51.82, 101.11 52.98, 13.5 54 M13.5 54 C5.15 55.87, -0.06 48.21, 0 40.5 M13.5 54 C4.82 53.72, -2.04 50.8, 0 40.5 M0 40.5 C1.45 28.52, -0.94 19.46, 0 13.5 M0 40.5 C-1.05 31.49, 0.87 22.42, 0 13.5 M0 13.5 C0.14 3.11, 4.01 0.67, 13.5 0 M0 13.5 C0.37 4.29, 6.14 -0.63, 13.5 0" stroke="#1971c2" stroke-width="2" fill="none"></path></g><g transform="translate(311.88750076293945 183.5) rotate(0 21.112499237060547 12.5)"><text x="21.112499237060547" y="17.52" font-family="Virgil, Segoe UI Emoji" font-size="20px" fill="#1971c2" text-anchor="middle" style="white-space: pre;" direction="ltr" dominant-baseline="alphabetic">root</text></g><g stroke-linecap="round" transform="translate(216 234) rotate(0 114 27)"><path d="M13.5 0 C54.26 2.16, 97.95 1.96, 214.5 0 M13.5 0 C61.07 0.05, 109.42 0.68, 214.5 0 M214.5 0 C223.34 0.07, 227.99 4.36, 228 13.5 M214.5 0 C225.47 -1.32, 229.14 2.84, 228 13.5 M228 13.5 C228.27 20.1, 228.2 28.99, 228 40.5 M228 13.5 C228.1 19.23, 227.58 25.24, 228 40.5 M228 40.5 C226 50.96, 223.78 55.3, 214.5 54 M228 40.5 C229.83 51.54, 221.78 52.08, 214.5 54 M214.5 54 C175.58 54.68, 135.01 55.81, 13.5 54 M214.5 54 C142.12 55.76, 68.54 54.66, 13.5 54 M13.5 54 C4.3 52.42, 1.51 49.6, 0 40.5 M13.5 54 C6.41 55.59, -1.3 50.99, 0 40.5 M0 40.5 C0.39 33.26, 1.14 24.65, 0 13.5 M0 40.5 C0.13 30.94, 0.48 20.19, 0 13.5 M0 13.5 C0.28 3.47, 5.8 1.53, 13.5 0 M0 13.5 C-0.09 3.87, 4.81 -1.32, 13.5 0" stroke="#1971c2" stroke-width="2" fill="none"></path></g><g transform="translate(307.63750076293945 248.5) rotate(0 22.362499237060547 12.5)"><text x="22.362499237060547" y="17.52" font-family="Virgil, Segoe UI Emoji" font-size="20px" fill="#1971c2" text-anchor="middle" style="white-space: pre;" direction="ltr" dominant-baseline="alphabetic">home</text></g><g stroke-linecap="round" transform="translate(218 300) rotate(0 114 27)"><path d="M13.5 0 C94.37 -1, 174.71 -1.35, 214.5 0 M13.5 0 C77.64 -1.83, 142.94 -1.62, 214.5 0 M214.5 0 C222.45 0.87, 227.75 4.05, 228 13.5 M214.5 0 C225.01 0.66, 227.92 6.77, 228 13.5 M228 13.5 C226.67 22.75, 227.16 30.43, 228 40.5 M228 13.5 C227.81 20.18, 228.71 25.98, 228 40.5 M228 40.5 C229.75 49.04, 225.01 54.73, 214.5 54 M228 40.5 C229.86 49.19, 221.96 51.95, 214.5 54 M214.5 54 C149.47 55.23, 85.7 54.81, 13.5 54 M214.5 54 C163.03 53.55, 109.92 54.36, 13.5 54 M13.5 54 C5.83 54.68, -1.05 50.52, 0 40.5 M13.5 54 C6.27 55.86, 1.74 50.85, 0 40.5 M0 40.5 C1.56 33.6, -1.81 25.05, 0 13.5 M0 40.5 C0.66 30.58, -0.81 20.3, 0 13.5 M0 13.5 C1.33 3.61, 5.33 0.83, 13.5 0 M0 13.5 C0.12 6.79, 5.62 2.07, 13.5 0" stroke="#1971c2" stroke-width="2" fill="none"></path></g><g transform="translate(283.11249923706055 314.5) rotate(0 48.88750076293945 12.5)"><text x="48.88750076293945" y="17.52" font-family="Virgil, Segoe UI Emoji" font-size="20px" fill="#1971c2" text-anchor="middle" style="white-space: pre;" direction="ltr" dominant-baseline="alphabetic">snapshots</text></g><g stroke-linecap="round" transform="translate(221 368) rotate(0 114 27)"><path d="M13.5 0 C89.38 -0.94, 165.95 0.36, 214.5 0 M13.5 0 C76.56 1.12, 138.23 1.7, 214.5 0 M214.5 0 C223.23 -1.62, 226.73 5.83, 228 13.5 M214.5 0 C222.48 0.96, 228.95 4.62, 228 13.5 M228 13.5 C228.09 25.79, 226.47 34.39, 228 40.5 M228 13.5 C227.19 19.63, 227.76 25.14, 228 40.5 M228 40.5 C226.23 51.11, 222.79 54.7, 214.5 54 M228 40.5 C228.69 47.47, 225.12 53.69, 214.5 54 M214.5 54 C140.84 55.71, 65.9 54.66, 13.5 54 M214.5 54 C168.96 52.95, 124.62 51.7, 13.5 54 M13.5 54 C5.4 53.76, -1.28 50.83, 0 40.5 M13.5 54 C5.83 52.01, -2.05 51.73, 0 40.5 M0 40.5 C0.69 31.93, -1.04 22.13, 0 13.5 M0 40.5 C0.07 32.47, -0.35 24.29, 0 13.5 M0 13.5 C0 4.79, 5.51 1.79, 13.5 0 M0 13.5 C0.42 4.24, 4.76 1.17, 13.5 0" stroke="#1971c2" stroke-width="2" fill="none"></path></g><g transform="translate(297.2249984741211 382.5) rotate(0 37.775001525878906 12.5)"><text x="37.775001525878906" y="17.52" font-family="Virgil, Segoe UI Emoji" font-size="20px" fill="#1971c2" text-anchor="middle" style="white-space: pre;" direction="ltr" dominant-baseline="alphabetic">var_log</text></g><g stroke-linecap="round" transform="translate(220 439) rotate(0 114 27)"><path d="M13.5 0 C83.62 0.84, 154.08 -0.98, 214.5 0 M13.5 0 C60.36 -0.73, 108.82 -0.8, 214.5 0 M214.5 0 C223.56 -1.7, 227.98 4.9, 228 13.5 M214.5 0 C225.33 2.24, 227.21 6.7, 228 13.5 M228 13.5 C229.1 20.69, 226.88 28.96, 228 40.5 M228 13.5 C228.36 21.64, 228.55 30.12, 228 40.5 M228 40.5 C228.45 49.77, 222.02 52.45, 214.5 54 M228 40.5 C227.7 51.07, 221.73 56.25, 214.5 54 M214.5 54 C161.56 51.43, 110.18 54.02, 13.5 54 M214.5 54 C152.27 54.13, 88.8 54.84, 13.5 54 M13.5 54 C3.02 54.97, 1.77 47.81, 0 40.5 M13.5 54 C2.82 52.57, -1.54 47.95, 0 40.5 M0 40.5 C-0.41 32.84, -0.78 28.51, 0 13.5 M0 40.5 C1.22 33.07, 1.2 25.41, 0 13.5 M0 13.5 C0.48 3.36, 4.17 -0.6, 13.5 0 M0 13.5 C0.95 4.82, 3.13 0.84, 13.5 0" stroke="#1971c2" stroke-width="2" fill="none"></path></g><g transform="translate(289.13750076293945 453.5) rotate(0 44.86249923706055 12.5)"><text x="44.86249923706055" y="17.52" font-family="Virgil, Segoe UI Emoji" font-size="20px" fill="#1971c2" text-anchor="middle" style="white-space: pre;" direction="ltr" dominant-baseline="alphabetic">var_pkgs</text></g></svg>